<svg xmlns="http://www.w3.org/2000/svg" width="1100" height="620" viewBox="0 0 1100 620" role="img" aria-labelledby="title desc">
<title id="title">Total lines across project files</title>
<desc id="desc">Daily project line totals from September 18 through October 7, 2026. Tracked files rose from 31,933 to 135,406 lines; the latest total includes the local untracked 6-line .env file.</desc>
<rect width="100%" height="100%" fill="#ffffff"/>
<style>text{font-family:system-ui,-apple-system,BlinkMacSystemFont,"Segoe UI",sans-serif;fill:#263238}.grid{stroke:#dce3e8;stroke-width:1}.axis{stroke:#657782;stroke-width:1.3}.line{fill:none;stroke:#167d9a;stroke-width:4;stroke-linejoin:round;stroke-linecap:round}.point{fill:#167d9a;stroke:#fff;stroke-width:2}.small{font-size:13px;fill:#53636c}.label{font-size:14px}.title{font-size:26px;font-weight:700}.subtitle{font-size:15px;fill:#53636c}</style>
<text class="title" x="105" y="43">Total lines across project files</text>
<text class="subtitle" x="105" y="72">Daily snapshots · Sep 18–Oct 7, 2026</text>
<line class="grid" x1="105" y1="445.0" x2="1035" y2="445.0"/>
<text class="small" x="90" y="450.0" text-anchor="end">20k</text>
<line class="grid" x1="105" y1="390.0" x2="1035" y2="390.0"/>
<text class="small" x="90" y="395.0" text-anchor="end">40k</text>
<line class="grid" x1="105" y1="335.0" x2="1035" y2="335.0"/>
<text class="small" x="90" y="340.0" text-anchor="end">60k</text>
<line class="grid" x1="105" y1="280.0" x2="1035" y2="280.0"/>
<text class="small" x="90" y="285.0" text-anchor="end">80k</text>
<line class="grid" x1="105" y1="225.0" x2="1035" y2="225.0"/>
<text class="small" x="90" y="230.0" text-anchor="end">100k</text>
<line class="grid" x1="105" y1="170.0" x2="1035" y2="170.0"/>
<text class="small" x="90" y="175.0" text-anchor="end">120k</text>
<line class="grid" x1="105" y1="115.0" x2="1035" y2="115.0"/>
<text class="small" x="90" y="120.0" text-anchor="end">140k</text>
<line class="axis" x1="105" y1="115" x2="105" y2="500"/>
<line class="axis" x1="105" y1="500" x2="1035" y2="500"/>
<polyline class="line" points="105.0,412.2 153.9,412.2 202.9,397.0 251.8,368.4 300.8,343.0 349.7,331.0 398.7,306.5 447.6,295.5 496.6,285.9 545.5,284.2 594.5,281.0 643.4,281.2 692.4,278.5 741.3,264.7 790.3,254.7 839.2,247.9 888.2,191.6 937.1,173.4 986.1,134.1 1035.0,127.6"/>
<circle class="point" cx="105.0" cy="412.2" r="5"/>
<text class="small" x="105.0" y="527" text-anchor="middle">18 Sep</text>
<circle class="point" cx="153.9" cy="412.2" r="5"/>
<circle class="point" cx="202.9" cy="397.0" r="5"/>
<circle class="point" cx="251.8" cy="368.4" r="5"/>
<text class="small" x="251.8" y="527" text-anchor="middle">21 Sep</text>
<circle class="point" cx="300.8" cy="343.0" r="5"/>
<circle class="point" cx="349.7" cy="331.0" r="5"/>
<circle class="point" cx="398.7" cy="306.5" r="5"/>
<text class="small" x="398.7" y="527" text-anchor="middle">24 Sep</text>
<circle class="point" cx="447.6" cy="295.5" r="5"/>
<circle class="point" cx="496.6" cy="285.9" r="5"/>
<circle class="point" cx="545.5" cy="284.2" r="5"/>
<text class="small" x="545.5" y="527" text-anchor="middle">27 Sep</text>
<circle class="point" cx="594.5" cy="281.0" r="5"/>
<circle class="point" cx="643.4" cy="281.2" r="5"/>
<circle class="point" cx="692.4" cy="278.5" r="5"/>
<text class="small" x="692.4" y="527" text-anchor="middle">30 Sep</text>
<circle class="point" cx="741.3" cy="264.7" r="5"/>
<circle class="point" cx="790.3" cy="254.7" r="5"/>
<circle class="point" cx="839.2" cy="247.9" r="5"/>
<text class="small" x="839.2" y="527" text-anchor="middle">03 Oct</text>
<circle class="point" cx="888.2" cy="191.6" r="5"/>
<circle class="point" cx="937.1" cy="173.4" r="5"/>
<text class="small" x="937.1" y="527" text-anchor="middle">05 Oct</text>
<circle class="point" cx="986.1" cy="134.1" r="5"/>
<circle class="point" cx="1035.0" cy="127.6" r="5"/>
<text class="small" x="1035.0" y="527" text-anchor="middle">07 Oct</text>
<text class="label" x="117.0" y="398.2">31,933</text>
<text class="label" x="1028.0" y="113.6" text-anchor="end">135,412</text>
<text class="small" x="105" y="574">All tracked files on main; Oct 7 total adds the local, untracked .env (+6 lines).</text>
</svg>
